<svg width="24" height="24" viewBox="0 0 24 24" fill="none" xmlns="http://www.w3.org/2000/svg">
<g clip-path="url(#clip0_3_7)">
<path d="M12.0001 2.41531e-06C9.20211 -0.00177203 6.49148 0.974216 4.33687 2.75921C2.18227 4.54421 0.719129 7.02599 0.200448 9.77545C-0.318234 12.5249 0.140149 15.3692 1.49634 17.8165C2.85253 20.2638 5.02127 22.1603 7.62756 23.178C7.52256 22.2285 7.42656 20.769 7.66806 19.7325C7.88706 18.795 9.07506 13.767 9.07506 13.767C9.07506 13.767 8.71656 13.0485 8.71656 11.9865C8.71656 10.317 9.68406 9.072 10.8886 9.072C11.9116 9.072 12.4066 9.84 12.4066 10.7625C12.4066 11.7915 11.7511 13.3305 11.4121 14.757C11.1301 15.951 12.0121 16.926 13.1896 16.926C15.3226 16.926 16.9621 14.676 16.9621 11.43C16.9621 8.5575 14.8966 6.549 11.9491 6.549C8.53506 6.549 6.53106 9.1095 6.53106 11.7555C6.53106 12.7875 6.92856 13.893 7.42356 14.4945C7.46619 14.5398 7.49633 14.5955 7.51105 14.6559C7.52578 14.7164 7.52457 14.7796 7.50756 14.8395C7.41606 15.2175 7.21356 16.0335 7.17456 16.2C7.12206 16.419 7.00056 16.4655 6.77256 16.3605C5.27256 15.663 4.33656 13.4715 4.33656 11.7105C4.33656 7.926 7.08756 4.4505 12.2656 4.4505C16.4281 4.4505 19.6636 7.416 19.6636 11.3805C19.6636 15.516 17.0551 18.8445 13.4371 18.8445C12.2206 18.8445 11.0776 18.213 10.6861 17.466L9.93906 20.319C9.66756 21.3615 8.93556 22.668 8.44656 23.4645C10.0965 23.9747 11.8372 24.1227 13.5496 23.8984C15.262 23.6741 16.9058 23.0829 18.3687 22.1651C19.8317 21.2472 21.0793 20.0244 22.0263 18.5802C22.9733 17.136 23.5974 15.5044 23.856 13.7968C24.1146 12.0893 24.0016 10.346 23.5246 8.68613C23.0477 7.02626 22.2181 5.4889 21.0925 4.17906C19.967 2.86921 18.5719 1.81776 17.0027 1.09652C15.4335 0.375287 13.7271 0.00126345 12.0001 2.41531e-06Z" fill="#1F2937"/>
</g>
<defs>
<clipPath id="clip0_3_7">
<rect width="24" height="24" fill="white"/>
</clipPath>
</defs>
</svg>
